<svg width="25" height="26" viewBox="0 0 25 26" fill="none" xmlns="http://www.w3.org/2000/svg">
<path fill-rule="evenodd" clip-rule="evenodd" d="M10.9889 2.61484L10.6437 3.99509C10.1199 6.08966 7.8821 7.33445 5.73746 6.72424L4.32532 6.32243C3.70106 7.0818 3.18877 7.9296 2.81188 8.84269L3.88118 9.82196C5.502 11.3063 5.502 13.7959 3.88118 15.2803L2.81188 16.2595C3.18877 17.1726 3.70106 18.0204 4.32532 18.7798L5.73747 18.378C7.8821 17.7678 10.1199 19.0126 10.6437 21.1071L10.9889 22.4874C11.4817 22.5563 11.9862 22.592 12.5 22.592C13.0138 22.592 13.5183 22.5563 14.0111 22.4874L14.3563 21.1071C14.8801 19.0126 17.1179 17.7678 19.2625 18.378L20.6747 18.7798C21.2989 18.0204 21.8112 17.1726 22.1881 16.2595L21.1188 15.2803C19.498 13.7959 19.498 11.3063 21.1188 9.82196L22.1881 8.84269C21.8112 7.9296 21.2989 7.0818 20.6747 6.32243L19.2625 6.72423C17.1179 7.33446 14.8801 6.08965 14.3563 3.99509L14.0111 2.61484C13.5183 2.54595 13.0138 2.51022 12.5 2.51022C11.9862 2.51022 11.4817 2.54595 10.9889 2.61484ZM9.63496 0.304799C10.558 0.105111 11.5171 0 12.5 0C13.4829 0 14.4419 0.105111 15.365 0.304798C15.8494 0.409575 16.2298 0.770456 16.3461 1.23542L16.8892 3.40708C17.0638 4.10528 17.8097 4.52021 18.5246 4.3168L20.7455 3.68488C21.221 3.54958 21.735 3.68607 22.0714 4.03698C23.3669 5.38831 24.359 7.01603 24.9412 8.81952C25.0884 9.27569 24.9541 9.77285 24.5947 10.102L22.9138 11.6414C22.3735 12.1362 22.3735 12.966 22.9138 13.4608L24.5947 15.0002C24.9541 15.3294 25.0884 15.8265 24.9412 16.2827C24.359 18.0862 23.3669 19.7139 22.0714 21.0652C21.735 21.4161 21.221 21.5526 20.7455 21.4173L18.5246 20.7854C17.8097 20.582 17.0638 20.9969 16.8892 21.6951L16.3461 23.8668C16.2298 24.3318 15.8494 24.6926 15.365 24.7974C14.4419 24.9971 13.4829 25.1022 12.5 25.1022C11.5171 25.1022 10.558 24.9971 9.63496 24.7974C9.15062 24.6926 8.77018 24.3318 8.6539 23.8668L8.1108 21.6951C7.9362 20.9969 7.19027 20.582 6.47539 20.7854L4.25447 21.4173C3.77897 21.5526 3.26498 21.4161 2.92857 21.0652C1.63305 19.7139 0.640979 18.0862 0.0588116 16.2827C-0.0884403 15.8265 0.0458583 15.3294 0.405245 15.0002L2.0862 13.4608C2.62647 12.966 2.62647 12.1362 2.0862 11.6414L0.405245 10.102C0.0458584 9.77285 -0.0884405 9.27569 0.0588116 8.81952C0.640979 7.01603 1.63305 5.38831 2.92857 4.03698C3.26498 3.68607 3.77897 3.54958 4.25447 3.68488L6.47538 4.3168C7.19027 4.52021 7.9362 4.10527 8.1108 3.40708L8.6539 1.23542C8.77018 0.770457 9.15062 0.409576 9.63496 0.304799ZM12.5 10.0409C11.0611 10.0409 9.8946 11.1648 9.8946 12.5511C9.8946 13.9375 11.0611 15.0613 12.5 15.0613C13.9389 15.0613 15.1054 13.9375 15.1054 12.5511C15.1054 11.1648 13.9389 10.0409 12.5 10.0409ZM7.2892 12.5511C7.2892 9.7784 9.62215 7.53067 12.5 7.53067C15.3778 7.53067 17.7108 9.7784 17.7108 12.5511C17.7108 15.3238 15.3778 17.5716 12.5 17.5716C9.62215 17.5716 7.2892 15.3238 7.2892 12.5511Z" fill="black"/>
</svg>
