<svg width="27" height="26" viewBox="0 0 27 26" fill="none" xmlns="http://www.w3.org/2000/svg">
<path fill-rule="evenodd" clip-rule="evenodd" d="M12.5388 0.380762C13.0658 -0.126921 13.9201 -0.126921 14.447 0.380762L17.5408 3.36153V2.60001C17.5408 1.88204 18.1449 1.3 18.8901 1.3H22.938C23.6832 1.3 24.2873 1.88204 24.2873 2.60001V9.86155L26.5907 12.0808C27.1176 12.5885 27.1176 13.4116 26.5907 13.9193C26.0637 14.427 25.2094 14.427 24.6825 13.9193L24.2873 13.5385V22.1001C24.2873 24.254 22.475 26.0001 20.2394 26.0001H6.74647C4.51089 26.0001 2.69859 24.254 2.69859 22.1001V13.5385L2.30339 13.9193C1.77646 14.427 0.922131 14.427 0.395199 13.9193C-0.131733 13.4116 -0.131733 12.5885 0.395199 12.0808L3.09331 9.48126C3.09363 9.48095 3.09395 9.48064 3.09427 9.48033L12.5388 0.380762ZM5.39717 10.9385V22.1001C5.39717 22.818 6.00127 23.4001 6.74647 23.4001H20.2394C20.9846 23.4001 21.5887 22.818 21.5887 22.1001V10.9385L17.9362 7.41944C17.9361 7.41932 17.936 7.41921 17.9358 7.41909L13.4929 3.13849L5.39717 10.9385ZM20.2394 5.96154L21.5887 7.26155V3.90001H20.2394V5.96154Z" fill="black"/>
</svg>
