<svg width="22" height="22" viewBox="0 0 22 22" fill="none" xmlns="http://www.w3.org/2000/svg">
<path d="M0.630045 15.7143H13.5128C13.5956 15.7143 13.6775 15.6981 13.754 15.6665C13.8305 15.6348 13.8999 15.5884 13.9585 15.5299C14.017 15.4714 14.0634 15.4019 14.095 15.3254C14.1267 15.249 14.1429 15.167 14.1429 15.0842V13.2015C14.1429 13.1187 14.1267 13.0368 14.095 12.9603C14.0634 12.8838 14.017 12.8143 13.9585 12.7558C13.8999 12.6973 13.8305 12.6509 13.754 12.6193C13.6775 12.5876 13.5956 12.5714 13.5128 12.5714H0.630045C0.547288 12.5714 0.46533 12.5876 0.388861 12.6193C0.312391 12.6509 0.24291 12.6973 0.184392 12.7558C0.125874 12.8143 0.0794678 12.8838 0.047828 12.9603C0.0161881 13.0368 -6.43864e-05 13.1187 1.91693e-07 13.2015V15.0842C-6.43864e-05 15.167 0.0161881 15.249 0.047828 15.3254C0.0794678 15.4019 0.125874 15.4714 0.184392 15.5299C0.24291 15.5884 0.312391 15.6348 0.388861 15.6665C0.46533 15.6981 0.547288 15.7143 0.630045 15.7143ZM0.630045 3.14286H13.5128C13.5956 3.14292 13.6775 3.12667 13.754 3.09503C13.8305 3.06339 13.8999 3.01698 13.9585 2.95847C14.017 2.89995 14.0634 2.83047 14.095 2.754C14.1267 2.67753 14.1429 2.59557 14.1429 2.51281V0.630045C14.1429 0.547288 14.1267 0.465331 14.095 0.388861C14.0634 0.312391 14.017 0.24291 13.9585 0.184392C13.8999 0.125874 13.8305 0.0794677 13.754 0.0478279C13.6775 0.016188 13.5956 -6.43864e-05 13.5128 1.91694e-07H0.630045C0.547288 -6.43864e-05 0.46533 0.016188 0.388861 0.0478279C0.312391 0.0794677 0.24291 0.125874 0.184392 0.184392C0.125874 0.24291 0.0794678 0.312391 0.047828 0.388861C0.0161881 0.465331 -6.43864e-05 0.547288 1.91693e-07 0.630045V2.51281C-6.43864e-05 2.59557 0.0161881 2.67753 0.047828 2.754C0.0794678 2.83047 0.125874 2.89995 0.184392 2.95847C0.24291 3.01698 0.312391 3.06339 0.388861 3.09503C0.46533 3.12667 0.547288 3.14292 0.630045 3.14286ZM21.2143 6.28571H0.785714C0.57733 6.28571 0.377481 6.36849 0.230131 6.51585C0.0827806 6.6632 1.91693e-07 6.86304 1.91693e-07 7.07143V8.64286C1.91693e-07 8.85124 0.0827806 9.05109 0.230131 9.19844C0.377481 9.34579 0.57733 9.42857 0.785714 9.42857H21.2143C21.4227 9.42857 21.6225 9.34579 21.7699 9.19844C21.9172 9.05109 22 8.85124 22 8.64286V7.07143C22 6.86304 21.9172 6.6632 21.7699 6.51585C21.6225 6.36849 21.4227 6.28571 21.2143 6.28571ZM21.2143 18.8571H0.785714C0.57733 18.8571 0.377481 18.9399 0.230131 19.0873C0.0827806 19.2346 1.91693e-07 19.4345 1.91693e-07 19.6429V21.2143C1.91693e-07 21.4227 0.0827806 21.6225 0.230131 21.7699C0.377481 21.9172 0.57733 22 0.785714 22H21.2143C21.4227 22 21.6225 21.9172 21.7699 21.7699C21.9172 21.6225 22 21.4227 22 21.2143V19.6429C22 19.4345 21.9172 19.2346 21.7699 19.0873C21.6225 18.9399 21.4227 18.8571 21.2143 18.8571Z" fill="black"/>
</svg>
