<svg width="22" height="25" viewBox="0 0 22 25" fill="none" xmlns="http://www.w3.org/2000/svg">
<path fill-rule="evenodd" clip-rule="evenodd" d="M20.5147 3.75C20.5147 1.67893 18.7927 0 16.6684 0H3.84706C1.72275 0 0.000665665 1.67893 0.000665665 3.75V21.25C0.000665665 23.3211 1.72275 25 3.84706 25H16.6684C18.7927 25 20.5147 23.3211 20.5147 21.25C20.5147 20.5596 19.9407 20 19.2326 20C18.5245 20 17.9505 20.5596 17.9505 21.25C17.9505 21.9404 17.3765 22.5 16.6684 22.5H3.84706C3.13895 22.5 2.56492 21.9404 2.56492 21.25V3.75C2.56492 3.05964 3.13895 2.5 3.84706 2.5H16.6684C17.3765 2.5 17.9505 3.05964 17.9505 3.75C17.9505 4.44036 18.5245 5 19.2326 5C19.9407 5 20.5147 4.44036 20.5147 3.75ZM14.4796 6.61612C13.9789 7.10427 13.9789 7.89573 14.4796 8.38388L17.4194 11.25L6.41131 11.25C5.70321 11.25 5.12918 11.8096 5.12918 12.5C5.12918 13.1904 5.70321 13.75 6.41131 13.75L17.4194 13.75L14.4796 16.6161C13.9789 17.1043 13.9789 17.8957 14.4796 18.3839C14.9803 18.872 15.7921 18.872 16.2928 18.3839L21.4213 13.3839C21.9221 12.8957 21.9221 12.1043 21.4213 11.6161L16.2928 6.61612C15.7921 6.12796 14.9803 6.12796 14.4796 6.61612Z" fill="black"/>
</svg>
