<svg width="100" height="100" viewBox="0 0 100 100" fill="none" xmlns="http://www.w3.org/2000/svg">
<path d="M96.4802 49.9992C98.0246 48.2008 99.1069 46.0527 99.6331 43.7413C100.159 41.4299 100.114 39.025 99.5001 36.7352C98.8865 34.4454 97.7235 32.3399 96.112 30.6014C94.5005 28.8629 92.4891 27.5438 90.2524 26.7586C90.6906 24.4288 90.5538 22.0272 89.8538 19.7623C89.1537 17.4974 87.9116 15.4374 86.2352 13.7612C84.5588 12.085 82.4987 10.8432 80.2337 10.1434C77.9687 9.4437 75.5671 9.30718 73.2374 9.74574C72.4528 7.50849 71.1339 5.49657 69.3954 3.88465C67.6568 2.27274 65.5511 1.10956 63.261 0.496088C60.9709 -0.11738 58.5656 -0.162587 56.2541 0.364392C53.9426 0.891372 51.7946 1.97461 49.9967 3.52005C48.1982 1.97567 46.0502 0.893411 43.7387 0.36716C41.4273 -0.159091 39.0224 -0.113439 36.7326 0.500155C34.4429 1.11375 32.3374 2.27675 30.5989 3.88828C28.8603 5.4998 27.5412 7.51117 26.756 9.7479C24.4264 9.31005 22.0251 9.44718 19.7605 10.1474C17.4958 10.8476 15.4362 12.0898 13.7603 13.7661C12.0843 15.4425 10.8427 17.5024 10.1431 19.7672C9.44343 22.0321 9.30692 24.4334 9.74536 26.7629C7.50863 27.5481 5.49725 28.8672 3.88573 30.6057C2.27421 32.3443 1.1112 34.4498 0.497602 36.7395C-0.115991 39.0293 -0.16165 41.4342 0.364601 43.7456C0.890852 46.057 1.97313 48.2051 3.51752 50.0036C1.97266 51.802 0.890049 53.9502 0.363649 56.2619C-0.162752 58.5735 -0.117054 60.9787 0.496809 63.2687C1.11067 65.5586 2.27413 67.6642 3.88621 69.4026C5.49828 71.141 7.51028 72.4597 9.74753 73.2442C9.30871 75.5738 9.44507 77.9753 10.1448 80.2403C10.8445 82.5052 12.0865 84.5651 13.7628 86.2413C15.4392 87.9174 17.4993 89.1591 19.7643 89.8585C22.0293 90.5579 24.4308 90.694 26.7604 90.2549C27.5456 92.4916 28.8647 94.503 30.6032 96.1145C32.3417 97.726 34.4472 98.889 36.737 99.5026C39.0268 100.116 41.4317 100.162 43.7431 99.6356C46.0545 99.1094 48.2026 98.0271 50.001 96.4827C51.7994 98.0276 53.9477 99.1102 56.2593 99.6366C58.571 100.163 60.9761 100.117 63.2661 99.5034C65.5561 98.8896 67.6617 97.7261 69.4001 96.114C71.1385 94.502 72.4572 92.49 73.2417 90.2527C75.5714 90.6914 77.9729 90.555 80.2379 89.8552C82.5029 89.1555 84.5629 87.9136 86.2391 86.2373C87.9154 84.5611 89.1573 82.5011 89.857 80.2361C90.5568 77.9711 90.6932 75.5696 90.2545 73.2399C92.4914 72.4549 94.503 71.1358 96.1146 69.3972C97.7262 67.6586 98.8891 65.553 99.5026 63.2631C100.116 60.9731 100.161 58.5681 99.6346 56.2567C99.1079 53.9453 98.0252 51.7973 96.4802 49.9992Z" fill="#18C07A"/>
<path d="M41.023 69.086L27.1285 55.2001C26.6011 54.6719 26.3049 53.9561 26.3049 53.2097C26.3049 52.4634 26.6011 51.7475 27.1285 51.2194L28.8165 49.5291C29.3447 49.0018 30.0605 48.7056 30.8069 48.7056C31.5532 48.7056 32.2691 49.0018 32.7972 49.5291L42.8974 59.6228L66.6842 34.3452C67.196 33.8021 67.9024 33.4844 68.6484 33.4616C69.3943 33.4388 70.1188 33.713 70.6627 34.2239L72.3963 35.8599C72.9401 36.3718 73.2583 37.0787 73.281 37.8252C73.3038 38.5716 73.0292 39.2966 72.5176 39.8406L45.0709 69.0231C44.8125 69.2985 44.5013 69.5192 44.1559 69.6719C43.8105 69.8247 43.4379 69.9064 43.0603 69.9123C42.6827 69.9182 42.3077 69.848 41.9577 69.7061C41.6077 69.5641 41.2899 69.3532 41.023 69.086Z" fill="white"/>
</svg>
