<svg width="22" height="22" viewBox="0 0 22 22" fill="none" xmlns="http://www.w3.org/2000/svg">
<path d="M3.31944 12.8234C4.09344 9.09537 7.32905 6.44645 10.9687 6.44645C14.6072 6.44645 17.8428 9.09537 18.6179 12.8234C18.6486 12.9714 18.7367 13.101 18.8627 13.1838C18.9887 13.2667 19.1423 13.2959 19.2898 13.2651C19.4373 13.2343 19.5665 13.146 19.6491 13.0196C19.7317 12.8933 19.7608 12.7392 19.7301 12.5912C18.8483 8.35089 15.1599 5.30811 10.9687 5.30811C6.77749 5.30811 3.08906 8.35089 2.20724 12.5912C2.17653 12.7392 2.20568 12.8933 2.28826 13.0196C2.37084 13.146 2.50009 13.2343 2.64758 13.2651C2.79507 13.2959 2.94871 13.2667 3.07471 13.1838C3.20071 13.101 3.28874 12.9714 3.31944 12.8234ZM10.9573 8.72313C12.0108 8.72313 13.0212 9.14289 13.7661 9.89008C14.511 10.6373 14.9295 11.6507 14.9295 12.7073C14.9295 13.764 14.511 14.7774 13.7661 15.5246C13.0212 16.2718 12.0108 16.6915 10.9573 16.6915C9.90385 16.6915 8.89352 16.2718 8.1486 15.5246C7.40367 14.7774 6.98518 13.764 6.98518 12.7073C6.98518 11.6507 7.40367 10.6373 8.1486 9.89008C8.89352 9.14289 9.90385 8.72313 10.9573 8.72313Z" fill="#6A707C"/>
</svg>
